<svg width="80" height="80" viewBox="0 0 80 80" fill="none" xmlns="http://www.w3.org/2000/svg">
<rect width="80" height="80" rx="40" fill="#151627"/>
<path d="M37.8184 10.7257C35.1103 15.5969 41.0278 19.5845 44.6417 21.8266C47.7235 23.6511 50.9813 25.2514 53.8697 27.4936C57.8484 30.7249 60.9039 35.029 62.4339 39.9969C64.9135 47.9412 62.2668 56.6285 56.2613 62.2691C51.8737 66.4061 45.7979 68.978 39.8012 69C41.3839 68.5296 43.015 68.0196 44.5098 67.3206C47.8334 65.8786 50.9109 63.7771 53.4433 61.1832C62.5878 51.8013 61.8096 39.0077 52.4936 30.0611C48.5545 26.3593 43.3403 24.1303 39.6342 20.0812C37.3348 17.7687 35.1718 13.5746 37.8184 10.7301V10.7257Z" fill="#F2A020"/>
<path d="M32.9866 34.7871C30.3136 37.4733 28.3089 40.6959 27.5087 44.3449C25.8249 51.2736 29.364 59.4025 36.1828 62.0492C39.6472 63.4604 43.6215 63.1834 47.1606 61.9173C39.6736 66.7182 30.318 63.7418 26.4272 55.8634C22.4353 48.328 25.1522 38.4845 32.991 34.7871H32.9866Z" fill="#F2A020"/>
<path d="M45.8901 48.4996C45.8549 54.6589 38.3546 57.543 34.2044 53.0806C31.826 50.5879 31.8216 46.4113 34.2044 43.9185C38.3546 39.4562 45.8549 42.3402 45.8901 48.4996ZM43.9469 48.4996C43.9776 43.7866 38.2315 41.1532 34.6968 44.4109C32.3272 46.4904 32.3272 50.5087 34.6968 52.5926C38.2315 55.8503 43.9776 53.2169 43.9469 48.504V48.4996Z" fill="#F2A020"/>
<path d="M54.8982 51.9905C54.8103 45.7564 53.4254 39.5136 48.7388 35.1875C47.6441 34.1763 46.4703 33.3718 45.1514 32.6068C47.1825 32.7959 49.2224 33.6004 50.9106 34.8973C55.9094 38.6431 58.6747 46.5258 54.8938 51.9905H54.8982Z" fill="#F2A020"/>
<path d="M25.8558 28.9578C21.6396 34.084 18.9446 40.2829 18.9314 46.9082C18.9183 50.9046 19.7668 54.7074 21.2527 58.5103C19.4194 56.444 18.1445 53.8765 17.3927 51.1596C15.111 42.9998 18.5182 33.341 25.8514 28.9578H25.8558Z" fill="#F2A020"/>
<path d="M39.4761 50.9352C40.8213 50.9352 41.9117 49.8447 41.9117 48.4996C41.9117 47.1544 40.8213 46.064 39.4761 46.064C38.131 46.064 37.0405 47.1544 37.0405 48.4996C37.0405 49.8447 38.131 50.9352 39.4761 50.9352Z" fill="#F2A020"/>
</svg>
