<svg width="47" height="59" viewBox="0 0 47 59" fill="none" xmlns="http://www.w3.org/2000/svg">
<path d="M21.127 0C18.4189 4.87121 24.3364 8.85875 27.9503 11.1009C31.0321 12.9254 34.2899 14.5257 37.1783 16.7679C41.157 19.9992 44.2125 24.3033 45.7425 29.2712C48.2221 37.2155 45.5754 45.9028 39.5699 51.5434C35.1823 55.6804 29.1065 58.2523 23.1098 58.2743C24.6925 57.8039 26.3236 57.2939 27.8184 56.5949C31.142 55.1528 34.2195 53.0514 36.7518 50.4575C45.8964 41.0756 45.1182 28.282 35.8022 19.3354C31.8631 15.6336 26.6489 13.4046 22.9427 9.35554C20.6434 7.04303 18.4804 2.84887 21.127 0.0043965V0Z" fill="#F2A020"/>
<path d="M16.2952 24.0614C13.6222 26.7476 11.6174 29.9702 10.8173 33.6192C9.13348 40.5479 12.6726 48.6768 19.4914 51.3235C22.9558 52.7347 26.9301 52.4577 30.4692 51.1916C22.9822 55.9924 13.6266 53.0161 9.73579 45.1377C5.74385 37.6023 8.46083 27.7588 16.2996 24.0614H16.2952Z" fill="#F2A020"/>
<path d="M29.1987 37.7739C29.1635 43.9332 21.6632 46.8172 17.513 42.3549C15.1346 39.8621 15.1302 35.6856 17.513 33.1928C21.6632 28.7305 29.1635 31.6145 29.1987 37.7739ZM27.2555 37.7739C27.2862 33.0609 21.5401 30.4275 18.0054 33.6852C15.6358 35.7647 15.6358 39.783 18.0054 41.8669C21.5401 45.1246 27.2862 42.4912 27.2555 37.7783V37.7739Z" fill="#F2A020"/>
<path d="M38.2068 41.2648C38.1189 35.0307 36.734 28.7878 32.0474 24.4618C30.9527 23.4506 29.7789 22.6461 28.46 21.8811C30.4911 22.0701 32.531 22.8747 34.2192 24.1716C39.2179 27.9174 41.9833 35.8001 38.2024 41.2648H38.2068Z" fill="#F2A020"/>
<path d="M9.16437 18.2321C4.94822 23.3583 2.25323 29.5572 2.24004 36.1825C2.22685 40.1789 3.07535 43.9817 4.56134 47.7846C2.72804 45.7183 1.45308 43.1508 0.701297 40.4338C-1.58044 32.2741 1.82678 22.6153 9.15998 18.2321H9.16437Z" fill="#F2A020"/>
<path d="M22.7847 40.2095C24.1299 40.2095 25.2203 39.119 25.2203 37.7739C25.2203 36.4287 24.1299 35.3383 22.7847 35.3383C21.4396 35.3383 20.3491 36.4287 20.3491 37.7739C20.3491 39.119 21.4396 40.2095 22.7847 40.2095Z" fill="#F2A020"/>
</svg>
